<svg display="none" version="1.1" xmlns="http://www.w3.org/2000/svg" xmlns:xlink="http://www.w3.org/1999/xlink">
<defs>
<symbol id="icon-phone" viewBox="0 0 1024 1024">
	<title>phone</title>
	<path class="path1" d="M574.925 574.925c-81.050 81.101-174.95 158.618-212.070 121.446-53.146-53.094-85.862-99.379-203.008-5.274s-27.187 156.877 24.32 208.384c59.392 59.341 280.781 3.123 499.661-215.706 218.778-218.829 275.098-440.269 215.654-499.661-51.456-51.507-114.176-141.414-208.333-24.32s-47.872 149.862 5.274 203.008c37.018 37.171-40.448 131.021-121.498 212.122z"></path>
</symbol>
<symbol id="icon-arrow-left7" viewBox="0 0 1024 1024">
	<title>arrow-left7</title>
	<path class="path1" d="M737.229 891.802c13.722 13.875 13.722 36.25 0 50.125s-35.891 13.875-49.613 0l-400.896-404.838c-13.722-13.875-13.722-36.301 0-50.125l400.896-404.89c13.722-13.875 35.891-13.875 49.613 0s13.722 36.25 0 50.125l-365.568 379.802 365.568 379.802z"></path>
</symbol>
<symbol id="icon-uniE6D8" viewBox="0 0 1024 1024">
	<title>uniE6D8</title>
	<path class="path1" d="M286.704 891.802c-13.722 13.875-13.722 36.25 0 50.125s35.891 13.875 49.613 0l400.896-404.838c13.722-13.875 13.722-36.301 0-50.125l-400.896-404.89c-13.722-13.875-35.891-13.875-49.613 0s-13.722 36.25 0 50.125l365.568 379.802-365.568 379.802z"></path>
</symbol>
<symbol id="icon-twitter" viewBox="0 0 1024 1024">
	<title>twitter</title>
	<path class="path1" d="M983.040 219.802c-34.714 15.411-71.936 25.754-111.053 30.464 39.936-23.91 70.605-61.798 84.992-106.906-37.325 22.118-78.694 38.246-122.675 46.899-35.277-37.581-85.504-61.030-141.107-61.030-106.752 0-193.28 86.528-193.28 193.229 0 15.155 1.69 29.901 5.018 44.032-160.614-8.038-303.053-84.992-398.336-201.933-16.691 28.518-26.266 61.747-26.266 97.178 0 67.072 34.15 126.208 86.016 160.87-31.693-1.024-61.491-9.677-87.552-24.166 0 0.819 0 1.587 0 2.406 0 93.645 66.662 171.725 155.034 189.542-16.179 4.403-33.28 6.758-50.944 6.758-12.442 0-24.525-1.178-36.352-3.43 24.576 76.8 96 132.659 180.531 134.195-66.15 51.866-149.453 82.739-240.026 82.739-15.616 0-30.976-0.922-46.080-2.714 85.504 54.835 187.085 86.835 296.294 86.835 355.482 0 549.888-294.502 549.888-549.939 0-8.346-0.154-16.691-0.563-24.986 37.786-27.238 70.502-61.286 96.461-100.045z"></path>
</symbol>
<symbol id="icon-facebook" viewBox="0 0 1024 1024">
	<title>facebook</title>
	<path class="path1" d="M768 211.405h-146.227c-17.306 0-36.608 22.733-36.608 53.197v105.574h182.835v150.528h-182.835v452.096h-172.646v-452.045h-156.518v-150.579h156.518v-88.576c0-127.027 88.166-230.4 209.203-230.4h146.278v160.205z"></path>
</symbol>
<symbol id="icon-googleplus" viewBox="0 0 1024 1024">
	<title>googleplus</title>
	<path class="path1" d="M101.888 286.157c0 76.442 25.549 131.686 75.878 164.096 41.216 26.573 89.088 30.566 113.971 30.566 6.042 0 10.854-0.256 14.234-0.461 0 0-7.885 51.354 30.208 102.195l-1.741-0.051c-65.997 0-281.293 13.824-281.293 190.822 0 180.070 197.734 189.184 237.363 189.184 3.123 0 4.915-0.051 4.915-0.051 0.461 0 3.277 0.102 8.090 0.102 25.446 0 91.238-3.174 152.371-32.922 79.258-38.451 119.501-105.421 119.501-198.912 0-90.368-61.235-144.128-105.984-183.45-27.29-23.962-50.893-44.646-50.893-64.768 0-20.48 17.203-35.891 39.014-55.398 35.226-31.539 68.506-76.442 68.506-161.331 0-74.65-9.677-124.723-69.325-156.467 6.246-3.174 28.211-5.478 39.117-7.014 32.307-4.403 79.565-9.421 79.565-35.789v-5.069h-235.418c-2.355 0.051-238.080 8.806-238.080 224.717zM481.946 747.622c4.506 71.987-57.088 125.133-149.555 131.84-93.901 6.912-171.264-35.379-175.77-107.366-2.15-34.56 13.005-68.403 42.752-95.386 30.208-27.29 71.578-44.134 116.685-47.514 5.325-0.307 10.598-0.563 15.872-0.563 86.886 0 145.766 51.098 150.016 118.989zM420.454 236.851c23.091 81.254-11.776 166.195-67.328 181.862-6.4 1.792-13.005 2.714-19.661 2.714-50.944 0-101.376-51.507-120.064-122.47-10.445-39.885-9.626-74.701 2.355-108.237 11.776-32.922 32.922-55.245 59.546-62.72 6.4-1.843 13.056-2.714 19.712-2.714 61.44 0 100.966 25.498 125.44 111.565zM817.203 413.798v-153.6h-97.28v153.6h-153.6v97.28h153.6v153.6h97.28v-153.6h153.6v-97.28h-153.6z"></path>
</symbol>
<symbol id="icon-pinterest" viewBox="0 0 1024 1024">
	<title>pinterest</title>
	<path class="path1" d="M441.139 677.274c-26.88 140.954-59.699 276.122-156.979 346.726-30.003-213.094 44.083-373.094 78.49-542.976-58.675-98.816 7.066-297.574 130.867-248.576 152.32 60.262-131.891 367.258 58.88 405.606 199.219 40.038 280.525-345.6 157.030-470.989-178.483-181.146-519.578-4.198-477.594 255.027 10.189 63.386 75.674 82.637 26.163 170.086-114.227-25.293-148.326-115.405-143.923-235.52 7.066-196.557 176.64-334.182 346.726-353.229 215.142-24.115 417.024 78.95 444.826 281.293 31.386 228.352-97.024 475.699-327.117 457.882-62.31-4.762-88.474-35.635-137.37-65.331z"></path>
</symbol>
</defs>
</svg>
